<svg xmlns="http://www.w3.org/2000/svg" version="1.1" xmlns:xlink="http://www.w3.org/1999/xlink" width="2000" height="2000" viewBox="0 0 2000 2000"><rect width="2000" height="2000" x="0" y="0" id="background" stroke="transparent" fill="#f5ffe2"></rect><svg xml:space="preserve" width="1500" height="1500" data-version="2" data-id="lg_PWtaxiRkMLAFOJbA8D" viewBox="0 0 323 276" x="250" y="250">
    <path fill="#275559" fill-rule="evenodd" d="M136.345 9.411c-3.98 3.886-8.287 8.58-9.571 10.433-1.284 1.852-2.508 3.195-2.72 2.983-.212-.212.261-2.609 1.05-5.326 1.524-5.24 1.311-7.342-.744-7.342-1.448 0-4.003 9.914-4.003 15.529 0 1.907-.39 3.709-.868 4.004-.49.303-.868-.407-.868-1.629 0-2.844-1.464-6.618-2.567-6.618-1.44 0-1.88 3.633-.999 8.247l.83 4.34-3.997 3.527c-2.974 2.626-3.842 3.926-3.397 5.086.557 1.45.745 1.461 2.729.162 1.172-.767 2.286-1.396 2.475-1.396.19 0 .016 1.66-.385 3.69-.4 2.03-.953 5.525-1.228 7.769-.352 2.868-.96 4.226-2.05 4.571-2.564.815-4.061 4.496-2.987 7.344.918 2.43.91 2.437-1.347 1.26-1.248-.652-2.704-1.187-3.236-1.19-.532-.003-1.647-1.783-2.477-3.957-.83-2.174-2.82-5.899-4.421-8.279l-2.913-4.328 2.946.553c3.927.737 5.344-.177 3.476-2.242-1.337-1.477-1.31-1.646.43-2.576 2.658-1.423 1.697-3.033-1.873-3.138-1.904-.056-5.276-1.422-8.973-3.637-6.242-3.738-6.242-3.77.005-4.715.948-.143 1.837-.842 1.974-1.552.215-1.11-1.852-1.26-14.747-1.059-14.48.226-14.908.183-12.393-1.237 1.433-.809 4.737-2.135 7.343-2.945 4.86-1.514 6.42-3.033 4.047-3.944-1.629-.625-9.092 1.71-14.428 4.515-4.101 2.155-11.37 4.884-11.818 4.436-.145-.144 1.87-1.538 4.475-3.096 4.83-2.889 5.713-4.154 3.495-5.005-1.527-.585-7.283 2.733-13.054 7.526-2.373 1.97-5.89 4.37-7.813 5.333-1.924.963-5.393 3.327-7.709 5.254-4.114 3.423-4.18 3.444-2.877.926 1.399-2.705 7.82-8.958 9.198-8.958 1.043 0 3.532-2.491 3.532-3.534 0-1.568-3.258-.775-6.916 1.682-5.09 3.419-9.268 8.964-11.077 14.702-1.362 4.321-2.042 5.155-6.607 8.106-2.799 1.81-5.831 3.524-6.738 3.813-.907.287-1.65 1.127-1.65 1.865 0 1.377 2.915 1.318 6.294-.127 2.532-1.083 1.76.754-3.255 7.745-2.626 3.66-4.775 7.194-4.775 7.853 0 2.496 1.72 2.093 4.072-.958 1.34-1.74 3.3-4.19 4.352-5.445l1.914-2.28-.472 3.472c-.26 1.91-1.022 5.486-1.696 7.947-1.735 6.336-1.636 14.087.188 14.786.898.345 1.954-.173 2.895-1.42l1.481-1.965 1.152 2.778c.995 2.404.956 3.106-.291 5.218-3.408 5.768-.705 10.786 5.832 10.828 3.112.021 4.374.64 8.296 4.072 5.18 4.531 12.12 7.572 18.938 8.298 2.506.266 4.557.802 4.557 1.19 0 .386-.414 2.636-.92 4.997-.855 3.984-1.623 4.922-10.635 12.987-17.01 15.22-19.086 16.74-22.07 16.142-2.783-.556-4.818 1.013-2.478 1.91 1.18.454 1.185.662.047 1.801-1.633 1.633-.776 3.12 1.4 2.428 1.147-.364 1.528-.173 1.238.617-.231.627-.063 1.702.373 2.388 1.206 1.895 3.53-.425 3.53-3.523 0-1.374.302-2.498.672-2.498.369 0 5.914-4.482 12.321-9.96 6.408-5.477 11.772-9.837 11.921-9.689.15.148-1.071 5.705-2.71 12.347-5.477 22.19-8.455 36.066-7.998 37.258.33.858 1.706 1.078 5.06.805 2.533-.207 14.763-1.176 27.177-2.153 12.414-.978 23.06-1.942 23.656-2.144 1.62-.548 1.45-1.621-4.09-25.588-2.812-12.17-5.013-22.23-4.89-22.352.123-.125 5.467.221 11.872.766 8.491.723 12.39 1.434 14.386 2.623 2.284 1.36 3.113 1.46 4.992.605 2.516-1.147 2.72-1.671 1.23-3.162-.788-.787.97-2.916 7.595-9.191 4.74-4.493 8.718-8.08 8.84-7.974.119.107-.973 6.02-2.429 13.141-4.394 21.507-6.876 37.189-6.02 38.05.434.436 3.003.977 5.71 1.202l4.92.408-.57 6.827c-.53 6.348-.452 6.828 1.095 6.828 2.122 0 2.717-1.617 2.717-7.379 0-7.475-.125-7.379 9.568-7.379h8.514l.599 6.39c.684 7.296 1.356 8.86 3.463 8.051 1.134-.435 1.37-1.234 1-3.382a263.034 263.034 0 0 1-1.043-6.805l-.556-3.993 4.57-.541c2.513-.298 4.872-.845 5.242-1.216.672-.675-2.887-31.927-4.408-38.697-.444-1.98-.682-3.726-.527-3.88.155-.155 1.692 1.64 3.416 3.99 3.097 4.218 8.741 9.352 12.423 11.3 1.042.55 2.152 1.812 2.466 2.802.37 1.165 1.042 1.62 1.905 1.288.733-.281 1.882-.057 2.551.5 1.584 1.313 5.507-.349 5.507-2.334 0-1.58 1.913-1.327 10.846 1.431l5.204 1.607 4.338-3.037c2.385-1.67 4.452-2.692 4.592-2.272.14.42-.903 5.997-2.317 12.394-4.99 22.559-6.263 30.57-5.053 31.782 1.902 1.902 17.685 3.71 32.306 3.702 7.64-.004 14.436-.354 15.102-.776 1.304-.826 1.204-1.926-1.155-12.661-.734-3.342-2.153-12.523-3.153-20.4-1-7.879-2.568-17.98-3.485-22.45-1.96-9.558-1.967-9.67-.646-9.67 2.293 0 13.668-6.357 16.377-9.153 1.6-1.65 3.322-3.002 3.824-3.002.587-.002.811 2.376.625 6.628-.434 9.946 2.269 15.883 9.672 21.246 2.89 2.093 4.317 2.51 8.588 2.51 5.89 0 8.59-1.182 12.848-5.629 2.938-3.069 2.983-3.214 1.353-4.414-.927-.682-3.022-1.241-4.656-1.241-6.226 0-12.298-5.519-13.878-12.615-.429-1.925-.595-8.597-.37-14.828.402-11.15-1.052-24.415-3.334-30.418-1.628-4.282 2.753-4.731 6.912-.71 3.629 3.507 4.571 10.94 2.961 23.345-1.076 8.29-1.151 11.249-.36 14.135 1.238 4.517 4.741 8.794 8.482 10.357 3.598 1.504 10.765 1.53 12.791.049 1.468-1.073 1.435-1.275-.618-3.715l-2.17-2.58 3.388-2.844c4.683-3.932 4.45-5.556-.987-6.848-11.092-2.635-14.935-10.577-11.667-24.112 2.652-10.984 1.091-17.67-4.736-20.278-2.662-1.193-3.241-1.799-2.463-2.577 1.566-1.566 6.322-1.208 8.604.648 1.816 1.476 2.05 2.391 2.05 8.03v6.364l2.879.276c6.366.611 12.984-8.375 12.04-16.35-1.285-10.838-9.342-18.216-19.896-18.216-8.522 0-14.555 5.49-14.555 13.247 0 2.326.397 4.97.883 5.878.737 1.378.453 1.872-1.729 3-1.436.742-3.265 2.348-4.064 3.568l-1.453 2.218-2.23-2.887c-7.66-9.918-20.471-19.086-31.539-22.567-7.73-2.432-18.541-1.985-24.542 1.015-2.387 1.194-4.466 2.854-4.62 3.69-.383 2.068 1.04 1.912 6.388-.705 6.353-3.108 15.954-3.11 24.202-.005 6.286 2.366 10.925 4.84 10.925 5.826 0 1.303-9.843 4.216-17.323 5.125-12.58 1.53-23.45-.886-32.352-7.19-1.11-.786-1.748-.806-2.474-.08-1.292 1.291-.434 3.762 2.656 7.648l2.523 3.176-2.984 4.156c-1.643 2.285-3.572 5.559-4.289 7.273-.845 2.024-2.35 3.615-4.287 4.534-3.152 1.496-5.186 5.344-4.244 8.028.289.822 1.394 2.472 2.455 3.665 1.161 1.305 2.15 3.874 2.481 6.44.636 4.939 3.733 12.134 7.153 16.617 2.687 3.524 11.89 10.38 15.733 11.718l2.546.888-1.08 4.522a765.664 765.664 0 0 1-1.63 6.693c-.356 1.41-2.524 3.468-6.198 5.88l-5.652 3.71-4.454-1.322c-2.45-.728-6.14-1.323-8.203-1.323-3.105 0-3.749-.283-3.749-1.65 0-1.343-.607-1.636-3.255-1.571-1.792.044-3.693.663-4.23 1.378-.835 1.112-1.577.863-5.208-1.74-8.37-6.006-15.6-18.064-19.273-32.143-2.335-8.955-2.389-9.552-.94-10.328.848-.453 2.142-.824 2.876-.824 2.051 0 10.026-4.042 14.62-7.409 2.266-1.662 5.392-4.965 6.945-7.34 2.366-3.619 3.255-4.32 5.493-4.333 6.313-.038 8.993-7.968 4.092-12.108-2.49-2.104-2.663-2.657-3.018-9.662-.357-7.023-.28-7.427 1.384-7.379 6.348.185-1.459-14.684-11.481-21.868-3.81-2.73-4.336-3.725-1.04-1.96 3.59 1.92 11.554 3.48 12.742 2.494 2.236-1.856 1.312-3.353-2.094-3.393-1.79-.021-4.818-.642-6.728-1.379-1.91-.737-6.011-2.086-9.115-2.998-8.398-2.467-8.696-2.702-4.436-3.501 4.288-.806 7.04-2.855 7.04-5.24 0-1.966-1.143-2.03-3.908-.219-1.53 1.003-5.64 1.582-14.943 2.107-13.441.758-15.6 1.171-21.96 4.206l-3.896 1.858 6.38-6.096c4.136-3.951 6.207-6.548 5.887-7.382-.879-2.29-2.376-1.402-9.734 5.78m3.978 8.127c-3.99 1.537-1.598 1.549 3.906.02 3.416-.948 3.785-1.203 1.737-1.197-1.433.004-3.972.534-5.643 1.177m19.09 4.124c-.005 1.074-.963 4.004-2.13 6.51-2.409 5.173-1.793 5.752 2.04 1.918 3.09-3.09 4.995-8.623 3.333-9.678-1.937-1.231-3.235-.73-3.243 1.25m-14.291 1.298c-.33 1.31-1.96 4.045-3.625 6.076-1.664 2.032-2.662 3.694-2.217 3.694 1.705 0 10.943-7.904 12.43-10.634.724-1.33.402-1.52-2.58-1.52-2.995 0-3.483.291-4.008 2.384m-7.57 2.608c-.719.836-1.577 2.279-1.909 3.207-.596 1.668-.582 1.668 1.251.01 2.223-2.013 3.791-4.736 2.726-4.736-.42 0-1.35.683-2.069 1.52m13.582 2.874c-4.11 4.225-10.536 8.628-12.589 8.628-.814 0-1.966-.586-2.56-1.3-.937-1.13-1.467-.96-4.042 1.301-3.087 2.71-6.377 3.451-6.377 1.435 0-.642.825-1.911 1.832-2.821 2.93-2.645 7.076-8.165 6.132-8.165-.475 0-2.753 1.496-5.064 3.324-3.446 2.726-4.982 4.951-8.542 12.37-4.316 8.996-4.34 9.096-4.34 17.728 0 8.008.201 9.051 2.603 13.449 5.658 10.357 14.985 16.515 27.69 18.28 22.257 3.093 40.07-9.307 42.99-29.93 1.278-9.03-.725-17.207-5.928-24.2l-3.116-4.19-.434 3.746c-.366 3.157-.708 3.701-2.17 3.455-2.484-.416-4.883-3.734-7.766-10.741l-2.514-6.11-1.72 3.655c-2.768 5.882-11.761 10.679-14.08 7.51-.882-1.208-.623-2.28 1.503-6.205 1.414-2.61 2.425-4.745 2.247-4.745-.178 0-1.867 1.587-3.755 3.526m21.786 1.249c2.848 6.48 3.392 7.023 2.618 2.604-.335-1.91-1.576-4.449-2.757-5.643l-2.149-2.17zm12.966 5.744c4.14 5.788 5.656 7.48 5.656 6.31 0-1.596-5.336-9.023-7.2-10.02-1.344-.72-.955.216 1.544 3.71m-137.147-.889c-2.387.483-7.11 2.24-10.496 3.906-6.59 3.242-15.98 11.41-15.98 13.902 0 .83.957 3.901 2.128 6.827 4.285 10.71 3.54 23.321-1.668 28.213-2.87 2.697-2.771 4.447.585 10.337 3.803 6.674 10.507 13.124 16.75 16.116 13.183 6.319 36.363 2.405 48.372-8.165 7.9-6.955 12.84-17.149 12.82-26.45-.03-12.532-8.955-29.547-17.199-32.785-3.372-1.325-3.588-1.315-4.067.194-.706 2.227-4.748 2.89-10.428 1.71-3.657-.76-5.701-1.832-8.423-4.422-2.673-2.542-3.343-3.67-2.613-4.4.73-.73 1.766-.293 4.04 1.705 3.334 2.926 7.818 4.504 12.822 4.511 4.374.007 4.778-1.217 1.142-3.463-1.674-1.035-3.044-2.24-3.044-2.68 0-1.489 3.026-.803 7.813 1.774 2.652 1.427 6.126 2.576 7.813 2.585l3.038.015-2.17-1.728c-1.193-.95-4.905-3.092-8.247-4.76-5.802-2.893-6.586-3.047-17.362-3.425-6.207-.218-13.238 0-15.626.483m.93 5.896c-.623 1.01 1.145 6.264 2.65 7.875.82.878 1.46.988 2.087.36.628-.627.374-2.144-.83-4.953-1.668-3.89-2.895-4.92-3.907-3.282m-8.6 3.286c-.32.32.06 1.562.845 2.76 1.913 2.92 1.937 10.195.047 13.964-1.68 3.349-.769 5.47 1.53 3.562 2.345-1.946 3.866-8.817 2.99-13.505-.978-5.23-3.635-8.559-5.413-6.781m253.234.226c-3.351 1.439-5.533 5.568-5.533 10.471v4.502l2.671-2.248c3.31-2.785 8.643-3.017 12.685-.553 3.246 1.978 4.844 6.525 4.046 11.511-.311 1.95-.175 3.288.336 3.288 1.557 0 5.444-3.572 6.853-6.297 2.81-5.435-.379-14.39-6.83-19.173-2.641-1.959-11.085-2.85-14.228-1.5m-262.94 7.163c-.266.695.503 3.386 1.71 5.978 2.705 5.81 2.813 10.808.358 16.516-1.908 4.436-1.785 5.709.47 4.844 4.243-1.628 6.021-13.148 3.188-20.651-2.077-5.498-4.911-8.809-5.725-6.687m103.96 2.586c-2.68 2.68-.015 6.823 3.261 5.07 1.314-.703 1.767-1.657 1.575-3.316-.3-2.592-3.014-3.577-4.837-1.754m29.838 2.36c-1.99 2.197-.51 5.562 2.263 5.148 2.546-.38 3.976-2.886 2.753-4.827-1.364-2.165-3.24-2.286-5.016-.321m45.48.107c0 1.445 5.975 5.345 10.082 6.58 5.406 1.627 14.52 1.56 20.36-.152 4.967-1.454 8.186-3.437 4.282-2.637-9.968 2.043-22.534 1.014-30.141-2.468-2.52-1.154-4.583-1.749-4.583-1.323m49.714 2.384c-2.079 4.778-1.871 15.201.402 20.183 2.643 5.793 10.798 13.022 14.69 13.022h1.915l-1.68-5.86c-.924-3.223-1.474-6.401-1.222-7.063.737-1.939 3.762 1.357 4.409 4.804.998 5.324 2.37 4.435 1.685-1.09-.824-6.64-5.295-14.733-12.06-21.826-2.846-2.983-5.523-5.425-5.95-5.425-.425 0-1.41 1.465-2.19 3.255M18.827 59.572c-1.78 3.324-2.694 13.836-1.73 19.884 1.454 9.133 2.974 9.307 5.603.645 1.702-5.61 1.645-11.831-.162-17.562-1.572-4.985-2.313-5.579-3.71-2.967m232.613 2.255c-12.635 6.815-23.729 7.326-37.513 1.73-1.132-.46-2.11.377-4.094 3.506-6.796 10.714-8.662 25.937-4.307 35.115 6.155 12.97 19.738 20.876 35.756 20.814 10.658-.043 18.758-3.227 25.173-9.896 3.864-4.017 9.292-13.517 9.292-16.264 0-.655-1.908-1.869-4.238-2.696-5.303-1.884-10.585-7.079-13.749-13.518-2.126-4.332-2.408-5.872-2.37-12.947.023-4.417.023-8.013 0-7.99-.025.02-1.802.987-3.95 2.146m-141.373-.537c-.975.61-.982 1.086-.038 2.798.964 1.75 1.185 1.833 1.456.545.54-2.582-.125-4.152-1.418-3.343m176.965 4.092-3.038 1.332 3.898 1.89c4.558 2.208 7.317 5.944 8.252 11.173l.668 3.737 1.12-3.473c1.52-4.712 1.514-9.566-.017-12.524-1.988-3.845-5.44-4.522-10.883-2.135m-94.81.856c-.25.43-.73 2.315-1.07 4.188l-.615 3.406 2.021-1.34c1.112-.737 2.13-1.886 2.263-2.554.303-1.516-1.982-4.768-2.6-3.7m-83.335 5.002c.222 1.95-.262 3.333-1.705 4.866-1.41 1.5-2.31 3.99-2.994 8.3-.538 3.387-2.1 8.465-3.473 11.284-2.893 5.947-10.264 13.832-16.119 17.244-2.241 1.305-3.916 2.838-3.724 3.405.193.568 1.163 4.57 2.157 8.898l1.805 7.868 12.517 1.104c6.884.607 12.924.853 13.421.545.498-.307.905-1.121.905-1.81 0-.688.61-1.25 1.353-1.25.744 0 1.112.39.817.868-.295.477-.299.868-.008.868 1.942 0 6.418-3.684 14.414-11.862l9.198-9.407 1.87-7.564c1.03-4.16 1.871-7.938 1.871-8.395 0-.457-1.27-1.096-2.821-1.42-4.333-.903-12.848-5.964-16.711-9.93-1.91-1.961-4.84-6.155-6.51-9.32-1.672-3.165-3.834-6.038-4.807-6.385-1.57-.561-1.733-.328-1.456 2.093m-34.043-.686c-1.657 1.658-1.687 2.202-.23 4.196 1.558 2.13 5.293 1.539 5.64-.894.255-1.785-1.783-4.666-3.301-4.666-.41 0-1.358.614-2.109 1.364m28.803.785c.592 3.094 2.154 3.814 1.803.832-.156-1.327-.722-2.556-1.255-2.732-.614-.2-.816.499-.548 1.9m45.358-.905c0 1.568 3.353 2.696 4.526 1.522 1.296-1.296.018-2.766-2.407-2.766-1.26 0-2.119.504-2.119 1.244m-19.966 2.198c0 2.695 4.776 7.435 9.76 9.687 3.915 1.77 5.92 2.062 14.112 2.063 8.293 0 10.04-.262 13.275-1.989 4.429-2.365 7.126-4.898 7.126-6.692 0-2.072-2.256-1.517-5.005 1.232-3.407 3.407-8.643 4.672-17.566 4.246-6.12-.293-8.183-.79-12.097-2.915-2.594-1.41-5.329-3.635-6.076-4.945-1.582-2.772-3.53-3.151-3.53-.687m91.294 5.501c-1.507 1.816-.227 4.947 2.022 4.947 2.545 0 4.206-2.046 3.49-4.299-.643-2.031-4.033-2.43-5.512-.648m-21.194 1.971c-.359.364-.64 1.866-.625 3.338.022 2.266.165 2.44.925 1.132.992-1.705.736-5.523-.3-4.47m-185.774.872c-.357.362-.625 1.862-.596 3.334.054 2.617.074 2.63.901.56.93-2.328.726-4.933-.305-3.894m33.32.663c-.8.965-.797 1.766.017 3.554 1.192 2.616 3.865 2.752 5.418.274 1.96-3.126-3.074-6.672-5.434-3.828m37.627 8.428c-3.159 7.005-12.433 12.627-22.362 13.554-4.262.397-6.303.185-8.437-.88-1.548-.771-3.157-1.191-3.576-.932-1.524.942-.709 2.783 1.624 3.67 9.476 3.604 22.164.442 31.03-7.73 3.899-3.594 6.99-8.856 6.075-10.338-1.103-1.786-2.824-.736-4.354 2.656m165.25-1.143c-1.94.444-2.658 2.583-1.56 4.636 1.594 2.978 6.043 1.548 6.043-1.942 0-1.76-2.364-3.181-4.484-2.694m-181.578.812c-1.101 1.1-.572 2.025 1.157 2.025.964 0 1.736-.58 1.736-1.302 0-1.322-1.836-1.78-2.893-.723m212.234 6.043-1.952 4.02 1.78 1.657c2.705 2.52 2.239 5.645-1.382 9.266-3.148 3.148-3.16 3.188-2.979 10.046.263 9.964 3.873 15.924 11.598 19.152 3.575 1.493 8.095.811 11.407-1.721 1.977-1.512 1.936-1.56-2.541-2.863-5.633-1.64-8.523-3.932-11.258-8.924l-2.574-4.702.241-14.974c.133-8.237.1-14.975-.073-14.975s-1.193 1.808-2.267 4.018m-50.068-.508c-.69 1.116 1.122 3.435 2.682 3.435 1.974 0 2.453-1.948.78-3.17-1.924-1.407-2.718-1.468-3.462-.265m-15.618.856c-.913 1.478 3.58 8.183 7.123 10.63 5.306 3.664 9.764 5.13 15.85 5.213 6.035.082 9.596-1.173 9.596-3.381 0-1.08-.545-1.202-2.821-.62-4.153 1.06-11.908.58-15.594-.964-4.266-1.789-8.89-5.93-10.23-9.163-1.081-2.61-2.885-3.397-3.924-1.715m81.513.367c-.339.883-.65 4.575-.69 8.202-.112 10.043 3.579 14.844 11.414 14.844h3.16l-2.332-2.435c-2.566-2.678-2.895-3.64-1.248-3.646.597-.003 2.229-.92 3.626-2.037l2.541-2.034-2.54-.62c-4.816-1.174-9.084-4.749-11.25-9.423-1.663-3.59-2.185-4.146-2.681-2.851m-151.029.813c-.77 2.01.166 5.034 2.254 7.276 2.238 2.4 3.48 2.428 6.393.136 1.677-1.318 2.288-2.594 2.288-4.775 0-2.857-.13-2.975-3.256-2.987-1.79-.006-4.13-.245-5.198-.532-1.331-.357-2.112-.08-2.48.882M18.19 100.126c-.747 1.95.808 4.162 3.173 4.512 1.078.16 1.807-.035 1.62-.434-2.762-5.855-3.779-6.72-4.793-4.078m257.716 5.958c-.794 1.741-.754 2.17.201 2.17 1.122 0 2.245-1.772 2.245-3.543 0-1.58-1.478-.75-2.446 1.373m-133.846.194c0 .345-1.523 8.256-3.384 17.58-1.862 9.322-4.429 22.615-5.705 29.538-1.276 6.923-2.53 13.326-2.788 14.229-.455 1.586.145 1.62 18.074 1.013 10.2-.345 18.785-.888 19.078-1.207 1.157-1.256-3.347-34.506-7.169-52.92l-1.854-8.936-2.098 1.971c-2.836 2.665-8.09 2.684-10.905.038-2.097-1.97-3.249-2.433-3.249-1.306M71.14 118.19c-2.002.626-5.443 1.41-7.647 1.739-2.347.352-3.873 1.002-3.684 1.568.606 1.818 6.437 4.226 8.799 3.633 3.227-.81 9.58-8.382 6.826-8.136-.358.032-2.29.57-4.293 1.196m4.018 6.698c-4.326 4.464-8.247 5.094-13.796 2.214l-4.23-2.195-1.246 5.347c-.684 2.94-3.872 16.417-7.083 29.949-3.212 13.53-5.615 24.826-5.34 25.1.43.43 29.471-1.547 44.002-2.996l4.871-.486-1.956-7.919c-1.077-4.355-4.197-17.88-6.934-30.055s-5.025-22.14-5.084-22.145c-.06-.004-1.501 1.43-3.204 3.186m155.824 3.984c.676 2.852 3.48 5.426 5.911 5.426 1.992 0 7.878-5.797 7.125-7.015-.271-.439-3.442-.798-7.047-.798h-6.554zm-4.18 3.827c-3.022 10.66-11.39 51.804-10.68 52.512 1.283 1.283 9.15 2.135 24.25 2.624 9.332.303 16.272.199 16.266-.245-.005-.424-.537-2.75-1.18-5.167-.644-2.417-1.889-10.524-2.766-18.013-.878-7.49-1.811-13.604-2.075-13.585-.263.019-2.433 2.79-4.82 6.159-3.497 4.935-4.29 6.702-4.084 9.093.272 3.153-1.939 5.138-3.289 2.954-.51-.825-.946-.628-1.692.766-1.264 2.361-2.95 1.449-2.422-1.31.26-1.361-.01-2.07-.787-2.07-2.23 0-1.181-2.694 1.397-3.593 2.353-.82 5.781-4.866 12.995-15.338 1.916-2.781 1.943-3.089.859-9.766-.616-3.792-1.27-6.895-1.453-6.895-.184 0-1.277 1.122-2.43 2.492-4.652 5.529-12.328 5.54-15.822.021-1.684-2.66-1.695-2.663-2.268-.64M58.207 209.513c-.822 4.382 1.093 35.798 2.603 42.714 1.336 6.117 2.173 7.392 4.547 6.924 1.923-.379 1.996-3.059.42-15.472-.577-4.535-1.326-14.692-1.664-22.57l-.617-14.324-2.338-.27c-2.086-.24-2.404.083-2.951 2.998m109.086-1.535c-.51.952-.927 3.85-.927 6.442 0 2.59-.248 6.52-.551 8.731l-.551 4.022-4.517-.531c-12.852-1.51-21.828 12.008-15.412 23.213 1.863 3.252 5.51 5.11 10.03 5.11 3.143 0 4.71-.602 7.884-3.023 3.867-2.953 3.969-2.978 4.323-1.085 1.567 8.357 1.801 8.879 4.109 9.146 2.873.333 3.42-1.053 2.358-5.966-.457-2.116-1.101-13.613-1.43-25.55-.592-21.433-.624-21.705-2.494-21.972-1.197-.17-2.237.369-2.822 1.463m59.058-.052c-.464.866-.921 5.16-1.018 9.544-.266 12.133-.336 12.32-4.639 12.32-3.327 0-5.714 1.134-5.714 2.716 0 1.767 3.057 3.36 6.448 3.36h3.72l.592 7.848c.802 10.621 2.052 14.289 4.869 14.289 2.45 0 2.444.071 1.26-14.925l-.63-7.98 4.585-.267c4.835-.281 6.823-1.82 5.799-4.49-.422-1.096-1.734-1.42-5.773-1.42h-5.228l.55-8.993c.303-4.947.292-10.026-.025-11.285-.677-2.7-3.509-3.122-4.796-.717m-205.743.876c-3.94 1.183-4.838 6.23-1.109 6.23 1.464 0 1.693.982 2.209 9.47 1.046 17.23 3.83 36.854 5.391 37.995 1.614 1.18 3.496.7 4.172-1.062.256-.665-.098-4.639-.785-8.83-1.65-10.062-1.777-9.493 2.273-10.14 1.953-.313 5.176-1.383 7.161-2.379 6.99-3.507 10.12-7.764 10.12-13.76 0-9.764-9.281-17.605-21.268-17.968-3.342-.1-7.016.099-8.164.444m6.313 9.92c.286 2.984.773 8.257 1.081 11.719.504 5.66.746 6.293 2.401 6.288 3.87-.01 8.42-1.911 11.48-4.796 2.847-2.686 3.124-3.332 2.66-6.193-.937-5.77-9.765-12.444-16.46-12.444-1.542 0-1.639.456-1.162 5.425m82.488 6.232c-.977 2.547.44 5.245 7.98 15.202l7.523 9.93-3.467 10.47c-1.905 5.758-3.294 10.92-3.085 11.469.576 1.513 3.548 2.006 4.582.76 1.38-1.662 9.125-24.856 11.716-35.086 2.546-10.052 2.582-13.38.147-13.842-2.454-.466-3.12.704-5.324 9.367-1.119 4.398-2.283 8.244-2.587 8.548-.6.602-2.856-2.095-9.623-11.512-4.424-6.156-6.896-7.824-7.862-5.306m-24.618.962c-4.333 1.938-6.083 3.743-8.388 8.65-3.896 8.294-1.778 18.686 4.407 21.621 3.582 1.7 5.11 1.73 8.122.163 2.836-1.476 5.593-4.415 7.321-7.807l1.282-2.515 1.425 4.18c1.748 5.13 3.67 7.362 6.34 7.362 2.561 0 2.621-1.714.231-6.65-.991-2.05-2.659-7.935-3.704-13.079l-1.901-9.352-3.395-1.6c-4.776-2.249-8.248-2.537-11.74-.973m104.945.683c-9.963 5.268-11.897 23.932-3.04 29.334 1.472.896 3.651 1.63 4.845 1.63 3.288 0 7.478-2.97 9.715-6.888 1.102-1.93 2.255-3.512 2.562-3.515.305-.005.824 1.067 1.152 2.38.941 3.773 3.929 8.03 5.634 8.03 3.24 0 3.676-2.117 1.362-6.618-1.198-2.329-2.96-8.076-3.918-12.774-.958-4.697-1.987-8.938-2.287-9.422-.85-1.376-7.461-4.134-9.96-4.155-1.238-.01-3.967.888-6.065 1.998m64.088.648c-9.035 4.77-11.538 20.392-4.462 27.836 3.757 3.952 6.604 5.093 12.669 5.077 6.445-.017 12.235-2.696 12.691-5.873.417-2.898-2.043-3.303-6.508-1.073-5.288 2.64-10.784 2.095-14.187-1.41-1.326-1.364-2.668-3.347-2.982-4.406-.659-2.218.063-2.471 9.076-3.186 6.811-.54 11.04-1.923 12.136-3.971 1.984-3.71-3.16-11.69-8.937-13.87-3.467-1.306-5.764-1.094-9.496.876m-60.563 3.751c-3.618 1.186-5.946 4.948-6.628 10.707-1.216 10.263 5.96 13.459 10.5 4.678 1.433-2.771 3.38-12.844 2.784-14.399-.633-1.648-3.39-2.057-6.656-.986m-107.778.561c-4.883 2.85-7.071 15.318-3.343 19.045 3.74 3.74 8.55-1.313 10.842-11.393 1.064-4.68 1.156-6.416.388-7.34-1.15-1.387-5.735-1.568-7.887-.312m170.662.94c-1.895.942-5.186 5.78-4.44 6.527.635.635 12.343-.63 13.722-1.482.944-.585.82-1.197-.634-3.154-1.962-2.64-5.558-3.426-8.648-1.89m-103.572 2.117c-4.41 3.71-4.736 11.162-.609 13.867 4.479 2.935 10.88-1.696 12.671-9.168.963-4.01.912-4.528-.558-5.64-2.729-2.067-8.488-1.596-11.504.941"></path>
</svg></svg>